<svg xmlns="http://www.w3.org/2000/svg" xmlns:xlink="http://www.w3.org/1999/xlink" width="500" zoomAndPan="magnify" viewBox="0 0 375 374.999991" height="500" preserveAspectRatio="xMidYMid meet" version="1.0"><defs><g/></defs><g fill="#db4a2b" fill-opacity="1"><g transform="translate(46.020691, 199.554202)"><g><path d="M 51.375 -20.703125 C 51.375 -13.253906 49.25 -7.765625 45 -4.234375 C 40.757812 -0.710938 34.65625 1.046875 26.6875 1.046875 C 18.707031 1.046875 12.597656 -0.710938 8.359375 -4.234375 C 4.117188 -7.765625 2 -13.253906 2 -20.703125 L 2 -21.484375 L 19.921875 -21.484375 L 19.921875 -20.796875 C 19.921875 -18.078125 20.425781 -16.140625 21.4375 -14.984375 C 22.445312 -13.828125 23.992188 -13.25 26.078125 -13.25 C 28.148438 -13.25 29.691406 -13.828125 30.703125 -14.984375 C 31.710938 -16.140625 32.21875 -18.078125 32.21875 -20.796875 L 32.21875 -59.59375 L 51.375 -59.59375 Z M 51.375 -20.703125 "/></g></g></g><g fill="#db4a2b" fill-opacity="1"><g transform="translate(98.850506, 199.554202)"><g><path d="M 28.84375 -46.78125 C 36.875 -46.78125 43.179688 -44.742188 47.765625 -40.671875 C 52.359375 -36.597656 54.65625 -30.664062 54.65625 -22.875 C 54.65625 -15.070312 52.359375 -9.132812 47.765625 -5.0625 C 43.179688 -0.988281 36.875 1.046875 28.84375 1.046875 C 20.820312 1.046875 14.53125 -0.972656 9.96875 -5.015625 C 5.40625 -9.066406 3.125 -15.019531 3.125 -22.875 C 3.125 -30.726562 5.40625 -36.675781 9.96875 -40.71875 C 14.53125 -44.757812 20.820312 -46.78125 28.84375 -46.78125 Z M 28.84375 -35.078125 C 23.1875 -35.078125 20.359375 -31.816406 20.359375 -25.296875 L 20.359375 -20.359375 C 20.359375 -13.890625 23.1875 -10.65625 28.84375 -10.65625 C 34.5625 -10.65625 37.421875 -13.890625 37.421875 -20.359375 L 37.421875 -25.296875 C 37.421875 -31.816406 34.5625 -35.078125 28.84375 -35.078125 Z M 28.84375 -35.078125 "/></g></g></g><g fill="#db4a2b" fill-opacity="1"><g transform="translate(151.68032, 199.554202)"><g><path d="M 5.796875 0 L 5.796875 -62.796875 L 23.046875 -62.796875 L 23.046875 0 Z M 5.796875 0 "/></g></g></g><g fill="#db4a2b" fill-opacity="1"><g transform="translate(175.583196, 199.554202)"><g><path d="M 5.796875 0 L 5.796875 -62.796875 L 23.046875 -62.796875 L 23.046875 0 Z M 5.796875 0 "/></g></g></g><g fill="#db4a2b" fill-opacity="1"><g transform="translate(199.48608, 199.554202)"><g><path d="M 5.796875 -51.109375 L 5.796875 -62.796875 L 23.046875 -62.796875 L 23.046875 -51.109375 Z M 5.796875 0 L 5.796875 -45.734375 L 23.046875 -45.734375 L 23.046875 0 Z M 5.796875 0 "/></g></g></g><g fill="#db4a2b" fill-opacity="1"><g transform="translate(223.388965, 199.554202)"><g><path d="M 23.828125 -63.84375 C 25.097656 -63.84375 26.679688 -63.679688 28.578125 -63.359375 C 30.484375 -63.046875 32.015625 -62.6875 33.171875 -62.28125 L 33.171875 -52.140625 L 29.1875 -52.140625 C 27.34375 -52.140625 26.070312 -51.789062 25.375 -51.09375 C 24.6875 -50.40625 24.34375 -49.226562 24.34375 -47.5625 L 24.34375 -45.734375 L 33.171875 -45.734375 L 33.171875 -34.046875 L 24.34375 -34.046875 L 24.34375 0 L 7.109375 0 L 7.109375 -34.046875 L 0.6875 -34.046875 L 0.6875 -45.734375 L 7.109375 -45.734375 L 7.109375 -47.640625 C 7.109375 -53.535156 8.550781 -57.707031 11.4375 -60.15625 C 14.320312 -62.613281 18.453125 -63.84375 23.828125 -63.84375 Z M 23.828125 -63.84375 "/></g></g></g><g fill="#db4a2b" fill-opacity="1"><g transform="translate(252.141866, 199.554202)"><g><path d="M 36.640625 -1.390625 C 34.273438 5.023438 31.375 9.890625 27.9375 13.203125 C 24.5 16.523438 19.691406 18.1875 13.515625 18.1875 C 9.765625 18.1875 6.441406 17.664062 3.546875 16.625 L 3.546875 6.328125 L 10.484375 6.328125 C 14.816406 6.328125 17.382812 4.21875 18.1875 0 L 0 -45.734375 L 18.53125 -45.734375 L 27.28125 -15.328125 L 27.890625 -15.328125 L 35.953125 -45.734375 L 52.921875 -45.734375 Z M 36.640625 -1.390625 "/></g></g></g><g fill="#db4a2b" fill-opacity="1"><g transform="translate(300.121651, 199.554202)"><g><path d="M 5.28125 0 L 5.28125 -17.234375 L 23.65625 -17.234375 L 23.65625 0 Z M 5.28125 0 "/></g></g></g></svg>